# xmcd
#
# Track frame offsets:
#	150
#	20086
#	39698
#	57097
#	76332
#	94989
#	114930
#	132445
#	152506
#	170106
# Disc length: 2482 seconds
# Revision: 1
# Processed by: cddbd v1.5.2PL0 Copyright (c) Steve Scherf et al.
#
# Submitted via: libkcddb 0.31
#
DISCID=7f09b00a
DTITLE=บุญตา เมืองใหม่ - รับปากได้บ่
DYEAR=2006
DGENRE=Country
TTITLE0=ใจบ่ว่างงาน
TTITLE1=รับปากได้บ่
TTITLE2=คนบ่มีแฟน
TTITLE3=ละครตบตา
TTITLE4=ตำแหน่งที่บ่อยากเป็น
TTITLE5=ฟ้าสางที่บ้านเฮา
TTITLE6=ฮักจริงต้องพิสูจน์ใจ
TTITLE7=น้ำมืออ้ายทำร้ายใจ
TTITLE8=นับนิ้วคอย
TTITLE9=ขอเป็นฝ่ายไป
EXTD=
EXTT0=
EXTT1=
EXTT2=
EXTT3=
EXTT4=
EXTT5=
EXTT6=
EXTT7=
EXTT8=
EXTT9=
PLAYORDER=
